<svg xmlns="http://www.w3.org/2000/svg" width="94" height="94" fill="none"><path opacity=".5" fill-rule="evenodd" clip-rule="evenodd" d="M13.03.127C9.483.871 6.612 3.423 5.423 6.892L5 8.122v77.787l.417 1.215c1.045 3.046 3.38 5.402 6.393 6.45l1.22.426h54.94l1.22-.425c3.013-1.05 5.348-3.405 6.393-6.451L76 85.909V24.856l-.474-1.306c-.261-.718-.78-1.769-1.152-2.335-.83-1.26-18.758-18.426-20.427-19.559-.62-.42-1.66-.959-2.313-1.195L50.447.03 32.104.003c-10.089-.016-18.672.04-19.073.124zm34.627 13.93l.053 8.6.594 1.218c.693 1.417 1.683 2.39 3.125 3.071l1.026.485 9.08.052 9.08.053v28.556c0 32.073.108 29.626-1.364 31.109-1.466 1.478.702 1.374-28.751 1.374-29.453 0-27.285.104-28.752-1.374-1.484-1.496-1.364 2.057-1.364-40.186 0-42.25-.12-38.689 1.368-40.189 1.403-1.414.362-1.34 19.113-1.356l16.74-.015.052 8.602zm13.878 2.13c3.288 3.132 5.978 5.723 5.978 5.757 0 .034-3.115.062-6.923.062-6.05 0-6.959-.037-7.21-.29-.25-.251-.286-1.136-.286-6.916V8.172l1.232 1.159c.677.637 3.922 3.722 7.21 6.855zm-42.98 20.91c-.771.41-1.418 1.494-1.418 2.379 0 .912.646 1.971 1.456 2.388.71.364 1.035.37 21.36.37 20.324 0 20.65-.006 21.359-.37.81-.416 1.455-1.476 1.455-2.388 0-.913-.645-1.972-1.455-2.389-.71-.364-1.026-.37-21.398-.362-20.227.008-20.693.016-21.36.371zm0 14.71c-.771.41-1.418 1.496-1.418 2.38 0 .913.646 1.972 1.456 2.388.71.365 1.035.37 21.36.37 20.324 0 20.65-.005 21.359-.37.81-.416 1.455-1.475 1.455-2.388 0-.912-.645-1.972-1.455-2.388-.71-.365-1.026-.37-21.398-.362-20.227.008-20.693.016-21.36.37zm0 14.71c-.771.413-1.418 1.5-1.418 2.382 0 .918.646 1.972 1.467 2.394.707.363.983.374 8.107.324 7.122-.05 7.392-.065 7.878-.431.905-.68 1.236-1.293 1.236-2.287 0-.995-.331-1.607-1.236-2.288-.487-.366-.747-.38-7.928-.42-7.107-.04-7.454-.026-8.107.325z" fill="#000354" fill-opacity=".6"/></svg>