<svg width="190" height="66" fill="none" xmlns="http://www.w3.org/2000/svg"><path d="M93.087 17.939v4.923h-2.282v-2.833h-10.49l-.019 2.833h-2.281l.018-4.923h1.614v-5.456c0-1.267.244-2.342.731-3.232a4.897 4.897 0 012.063-2.025c.886-.463 1.919-.695 3.098-.695 1.178 0 2.23.229 3.116.686a4.822 4.822 0 012.062 2.022c.487.893.731 1.974.731 3.241v5.456h1.636l.003.003zm-4.106 0v-5.684c0-1.167-.305-2.05-.914-2.65-.61-.603-1.45-.902-2.528-.902-1.079 0-1.916.302-2.52.902-.603.603-.901 1.486-.901 2.65v5.684h6.863zm15.072-.893l1.255 1.462a4.163 4.163 0 01-1.712 1.237c-.697.28-1.483.418-2.357.418-1.115 0-2.096-.223-2.946-.665-.85-.444-1.505-1.06-1.968-1.852-.463-.792-.694-1.687-.694-2.69 0-1.002.225-1.879.676-2.67a4.791 4.791 0 011.861-1.853c.792-.445 1.688-.664 2.69-.664s1.815.207 2.595.618a4.633 4.633 0 011.852 1.767c.457.768.685 1.663.685 2.69l-7.773 1.52c.24.582.627 1.026 1.16 1.331.533.305 1.173.457 1.919.457 1.103 0 2.02-.369 2.757-1.103v-.003zm-5.312-4.523c-.54.57-.808 1.337-.808 2.3v.018l5.739-1.103a2.688 2.688 0 00-.999-1.502c-.499-.38-1.106-.57-1.815-.57-.874 0-1.581.287-2.12.857h.003zm26.848-1.645c.747.74 1.121 1.852 1.121 3.336v5.815h-2.376v-5.51c0-.887-.198-1.557-.588-2.005-.393-.451-.956-.676-1.69-.676-.798 0-1.438.262-1.919.789-.482.526-.722 1.276-.722 2.25v5.152h-2.376v-5.51c0-.887-.198-1.557-.588-2.005-.393-.451-.957-.676-1.691-.676-.81 0-1.453.259-1.928.78-.475.52-.713 1.273-.713 2.263v5.15h-2.376V9.883h2.264v1.292a3.69 3.69 0 011.425-1.045 4.84 4.84 0 011.901-.363c.762 0 1.435.143 2.026.427a3.315 3.315 0 011.398 1.264 4.224 4.224 0 011.614-1.246c.658-.299 1.386-.448 2.187-.448 1.28 0 2.294.372 3.04 1.112l-.009.003zm15.091-.996v10.15h-2.263V18.74A3.794 3.794 0 01137 19.794a4.526 4.526 0 01-1.834.372c-1.355 0-2.427-.378-3.21-1.13-.786-.753-1.179-1.874-1.179-3.354V9.885h2.376v5.474c0 .914.207 1.593.618 2.044.412.45 1.006.676 1.776.676.838 0 1.505-.262 2.005-.789.499-.527.749-1.282.749-2.272V9.885h2.376l.003-.003zM77.753 29.569h10.36v2.035h-7.926v3.268h3.935c1.596 0 2.809.332 3.64 1 .829.663 1.246 1.623 1.246 2.878 0 1.319-.457 2.336-1.367 3.05-.911.715-2.212 1.074-3.897 1.074h-5.988V29.57h-.003zm5.854 11.405c.95 0 1.673-.183 2.166-.552.494-.368.74-.898.74-1.596 0-1.368-.968-2.053-2.909-2.053h-3.42v4.2h3.423zm19.045-8.252v8.611c0 3.573-1.755 5.361-5.264 5.361-.926 0-1.81-.125-2.65-.371-.844-.247-1.535-.607-2.08-1.076l1.063-1.788c.43.369.956.658 1.578.874a5.91 5.91 0 001.958.323c1.039 0 1.803-.25 2.29-.749.488-.5.732-1.27.732-2.309v-.475c-.38.417-.844.737-1.386.96a4.629 4.629 0 01-1.767.331c-1.355 0-2.425-.374-3.201-1.12-.78-.747-1.17-1.87-1.17-3.363v-5.21h2.376v4.905c0 .898.207 1.575.618 2.023.412.45 1 .676 1.758.676.85 0 1.523-.26 2.026-.78.499-.521.749-1.273.749-2.263v-4.563h2.376l-.006.003zm14.579 0v8.611c0 3.573-1.825 5.361-5.474 5.361-.975 0-1.901-.124-2.775-.371-.874-.247-1.596-.606-2.166-1.075l1.063-1.788c.445.368 1.005.66 1.682.883a6.563 6.563 0 002.062.332c1.115 0 1.931-.253 2.452-.762.521-.505.78-1.279.78-2.318v-.533c-.405.445-.899.78-1.484 1.008a5.205 5.205 0 01-1.919.342c-.962 0-1.834-.207-2.613-.619a4.6 4.6 0 01-1.843-1.74c-.451-.745-.673-1.601-.673-2.564 0-.962.225-1.816.673-2.556a4.623 4.623 0 011.843-1.72c.779-.406 1.651-.61 2.613-.61.734 0 1.404.122 2.005.362a3.7 3.7 0 011.51 1.103v-1.35h2.264v.004zm-3.202 6.872c.576-.54.865-1.24.865-2.102 0-.862-.289-1.538-.865-2.071-.575-.533-1.316-.798-2.214-.798-.899 0-1.657.265-2.233.798-.576.533-.865 1.221-.865 2.071 0 .85.289 1.563.865 2.102.576.54 1.322.807 2.233.807.91 0 1.639-.268 2.214-.807zm17.607-6.872v8.611c0 3.573-1.755 5.361-5.264 5.361a9.366 9.366 0 01-2.65-.371c-.844-.247-1.535-.607-2.08-1.076l1.063-1.788c.429.369.956.658 1.578.874a5.906 5.906 0 001.958.323c1.039 0 1.804-.25 2.291-.749.487-.5.731-1.27.731-2.309v-.475a3.806 3.806 0 01-1.386.96 4.627 4.627 0 01-1.767.331c-1.355 0-2.424-.374-3.201-1.12-.78-.747-1.17-1.87-1.17-3.363v-5.21h2.376v4.905c0 .898.207 1.575.618 2.023.412.45 1 .676 1.758.676.85 0 1.523-.26 2.026-.78.499-.521.749-1.273.749-2.263v-4.563h2.376l-.006.003zm19.541 0v10.15h-14.96v-10.15h2.376v8.136h3.936v-8.136h2.376v8.136h3.896v-8.136h2.376zm1.462 8.136v4.106h-2.224v-2.09h-1.69v-2.013h3.914v-.003zm10.701-.968l1.255 1.461a4.163 4.163 0 01-1.712 1.237c-.697.28-1.483.417-2.357.417-1.115 0-2.096-.222-2.946-.664-.85-.444-1.505-1.06-1.968-1.852-.463-.792-.694-1.687-.694-2.69 0-1.002.225-1.879.676-2.67a4.792 4.792 0 011.861-1.853c.792-.445 1.688-.664 2.69-.664s1.815.207 2.595.618a4.634 4.634 0 011.852 1.767c.457.768.686 1.663.686 2.69l-7.774 1.52c.24.582.627 1.026 1.16 1.331.533.305 1.173.457 1.919.457 1.103 0 2.02-.368 2.757-1.103v-.003zm-5.312-4.524c-.539.57-.808 1.337-.808 2.3v.018l5.739-1.103a2.688 2.688 0 00-.999-1.502c-.499-.38-1.105-.57-1.815-.57-.874 0-1.581.287-2.12.857h.003zm18.788-.628H171.4v8.137h-2.376v-10.15h7.792v2.013zm4.466 7.603a4.847 4.847 0 01-1.928-1.852c-.463-.792-.695-1.687-.695-2.69 0-1.002.232-1.894.695-2.68a4.865 4.865 0 011.928-1.843c.822-.445 1.748-.664 2.775-.664s1.971.222 2.793.664a4.889 4.889 0 011.929 1.843c.463.786.694 1.678.694 2.68 0 1.003-.231 1.898-.694 2.69a4.849 4.849 0 01-1.929 1.852c-.822.445-1.754.664-2.793.664-1.039 0-1.953-.222-2.775-.664zm4.941-2.242c.569-.581.856-1.349.856-2.3 0-.95-.287-1.717-.856-2.3-.57-.581-1.292-.873-2.166-.873-.874 0-1.593.292-2.157.874-.563.582-.846 1.35-.846 2.3 0 .95.283 1.718.846 2.3.564.581 1.283.874 2.157.874.874 0 1.596-.293 2.166-.874zM80.686 56.25c-.237-.192-.585-.286-1.045-.286h-1.127v-.938h2.273v-.582h-2.97v3.814h1.718c.484 0 .856-.104 1.118-.308.262-.204.393-.497.393-.874 0-.378-.12-.634-.357-.826h-.003zm-.57 1.304c-.14.107-.347.158-.62.158h-.982V56.51h.981c.554 0 .835.195.835.588 0 .201-.07.353-.213.457zm3.144-3.11l-.055 1.58c-.021.567-.079.982-.17 1.247-.092.262-.25.396-.472.396a.55.55 0 01-.165-.022l-.049.616a1.9 1.9 0 00.387.054c.268 0 .478-.085.634-.258.152-.174.262-.427.332-.759s.113-.765.13-1.3l.034-.954h1.505v3.217h.698v-3.814h-2.806l-.003-.003zm6.9 0h-.698l-1.718 3.814h.731l.375-.884h1.907l.38.884h.74l-1.72-3.814h.003zm-1.07 2.376l.713-1.666.72 1.666h-1.435.003zm7.058-2.376h-2.586v3.814h.695l-.003-3.214h1.891l.003-.6zm4.804.898a1.877 1.877 0 00-.737-.7 2.197 2.197 0 00-1.05-.253c-.388 0-.741.085-1.052.253a1.862 1.862 0 00-.737.703 1.938 1.938 0 00-.268 1.006 1.91 1.91 0 001.005 1.709c.314.167.664.252 1.051.252.387 0 .74-.085 1.051-.252.314-.168.557-.403.737-.701a1.94 1.94 0 00.268-1.008c0-.375-.088-.71-.268-1.009zm-.621 1.697a1.244 1.244 0 01-.478.478c-.205.116-.433.17-.686.17a1.38 1.38 0 01-.685-.17 1.245 1.245 0 01-.478-.478 1.377 1.377 0 01-.174-.688c0-.253.058-.485.174-.689a1.24 1.24 0 01.478-.478c.204-.116.432-.17.685-.17.253 0 .484.057.686.17.204.116.362.274.478.478.116.204.173.436.173.689 0 .252-.057.484-.173.688zm2.248-2.595v.6h1.261v3.214h.701v-3.214h1.264v-.6h-3.226zm7.996 2.166a1.03 1.03 0 00-.554-.335.903.903 0 00.417-.332.909.909 0 00.143-.518c0-.314-.119-.555-.359-.725-.241-.17-.576-.256-1.003-.256h-1.705v3.814h1.809c.469 0 .825-.092 1.072-.278.247-.185.372-.444.372-.78a.912.912 0 00-.192-.59zm-2.364-1.62h.947c.229 0 .403.045.524.14.122.094.18.228.18.404 0 .177-.061.314-.18.403-.118.088-.295.137-.524.137h-.947v-1.085zm1.091 2.725h-1.091v-1.124h1.091c.502 0 .752.186.752.555 0 .368-.25.566-.752.566v.003zm6.914-2.373a1.87 1.87 0 00-.737-.7 2.197 2.197 0 00-1.051-.253c-.387 0-.74.085-1.051.253a1.869 1.869 0 00-.737.703 1.945 1.945 0 00-.268 1.006 1.907 1.907 0 001.005 1.709c.314.167.664.252 1.051.252.387 0 .74-.085 1.051-.252.314-.168.558-.403.737-.701a1.94 1.94 0 00.268-1.008c0-.375-.088-.71-.268-1.009zm-.621 1.697a1.246 1.246 0 01-.478.478c-.204.116-.433.17-.686.17a1.38 1.38 0 01-.685-.17 1.239 1.239 0 01-.478-.478 1.374 1.374 0 01-.174-.688c0-.253.058-.485.174-.689a1.24 1.24 0 01.478-.478 1.36 1.36 0 01.685-.17c.253 0 .485.057.686.17.204.116.362.274.478.478.116.204.174.436.174.689 0 .252-.058.484-.174.688zm5.76-1.962a1.268 1.268 0 00-.563-.469 2.1 2.1 0 00-.865-.164h-1.569v3.814h.71v-1.1h.862c.332 0 .618-.055.865-.165a1.24 1.24 0 00.563-.472c.131-.204.195-.444.195-.722 0-.277-.064-.52-.195-.725l-.003.003zm-.758 1.286c-.159.13-.393.195-.704.195h-.829v-1.514h.829c.308 0 .542.064.704.195.158.13.24.317.24.56 0 .244-.079.43-.24.56v.004zm5.464-1.919l-2.047 2.708v-2.708h-.697v3.814h.658l2.05-2.702v2.702h.697v-3.814h-.661zm2.361 0v.6h1.258v3.214h.704v-3.214h1.264v-.6h-3.226zm5.636 3.22v-1.051h1.843v-.582h-1.843v-.993h2.077v-.594h-2.787v3.814h2.863v-.594h-2.153zm4.484-3.22l-.055 1.58c-.022.567-.079.982-.171 1.247-.091.262-.25.396-.472.396a.554.554 0 01-.165-.022l-.048.616c.164.036.292.054.387.054.268 0 .478-.085.633-.258.153-.174.262-.427.332-.759s.113-.765.131-1.3l.034-.954h1.505v3.217h.697v-3.814h-2.805l-.003-.003zm7.785 1.599c-.246-.204-.597-.308-1.053-.308h-1.058v-1.291h-.697v3.814h1.642c.487 0 .865-.113 1.133-.336.268-.222.402-.545.402-.968 0-.423-.122-.707-.369-.914v.003zm-.563 1.48c-.149.128-.363.192-.637.192h-.911v-1.437h.911c.573 0 .862.231.862.691 0 .244-.073.43-.222.554h-.003zm5.428-3.079v1.575h-1.974v-1.575h-.706v3.814h.706v-1.633h1.974v1.633h.707v-3.814h-.707zm5.681 1.599c-.246-.204-.597-.308-1.054-.308h-1.057v-1.291h-.697v3.814h1.642c.487 0 .865-.113 1.133-.336.268-.222.402-.545.402-.968 0-.423-.122-.707-.369-.914v.003zm-.563 1.48c-.15.128-.363.192-.637.192h-.911v-1.437h.911c.573 0 .862.231.862.691 0 .244-.073.43-.222.554h-.003zm2.178-3.079h-.698v3.814h.698v-3.814zm3.865-.256c.323 0 .57-.067.737-.204.168-.137.256-.332.259-.585h-.49a.387.387 0 01-.14.31.569.569 0 01-.369.11c-.155 0-.28-.036-.365-.11a.406.406 0 01-.131-.31h-.497c.003.26.088.454.253.588.164.134.411.201.737.201h.006zm1.051.256l-2.05 2.708v-2.708h-.698v3.814h.662l2.047-2.702v2.702h.697v-3.814h-.658zm9.248.716c-.347-.29-.844-.451-1.486-.482v-.386h-.655v.386c-.643.034-1.139.192-1.49.482-.35.289-.527.685-.527 1.185s.174.895.527 1.181c.351.287.847.448 1.49.479v.402h.655v-.402c.642-.025 1.139-.183 1.486-.475.351-.29.524-.686.524-1.188 0-.503-.173-.896-.524-1.185v.003zm-2.141 2.29c-.43-.036-.756-.146-.984-.332-.229-.186-.341-.441-.341-.773 0-.674.441-1.042 1.325-1.106v2.211zm1.645-.329c-.226.186-.555.299-.993.33v-2.212c.432.03.761.137.99.323.228.186.341.445.341.78s-.113.594-.338.782v-.003zm6.409-1.779a1.883 1.883 0 00-.737-.7 2.197 2.197 0 00-1.051-.253c-.387 0-.74.085-1.051.253a1.856 1.856 0 00-.737.703 1.935 1.935 0 00-.268 1.006 1.907 1.907 0 001.005 1.709c.314.167.664.252 1.051.252.387 0 .74-.085 1.051-.252a1.89 1.89 0 001.005-1.709c0-.375-.088-.71-.268-1.009zm-.622 1.697a1.239 1.239 0 01-.478.478 1.36 1.36 0 01-.685.17c-.253 0-.485-.057-.686-.17a1.246 1.246 0 01-.478-.478 1.373 1.373 0 01-.173-.688c0-.253.057-.485.173-.689.116-.204.277-.365.478-.478.204-.116.433-.17.686-.17.253 0 .484.057.685.17.204.116.363.274.478.478.116.204.174.436.174.689 0 .252-.058.484-.174.688zm5.444-2.595v1.575h-1.971v-1.575h-.71v3.814h.71v-1.633h1.971v1.633h.71v-3.814h-.71zm6.062 3.216v-3.216h-2.797l-.042 1.21c-.022.639-.083 1.13-.177 1.473-.094.345-.265.521-.503.53h-.164l-.006 1.41h.658v-.812h2.927v.813H190v-1.41h-.551v.003zm-.698 0h-1.934c.134-.143.231-.377.295-.706.061-.33.101-.74.119-1.234l.027-.676h1.493v2.617z" fill="#333"/><path d="M2.644 28.86l.664-9.13a32.045 32.045 0 00-2.546 9.29c.533-.124 1.215-.225 1.882-.16zm19.858-10.875c-1.13-1.207-1.517-2.623-1.011-4.216.329-1.042 1.041-1.743 2.126-1.99.904-.204 1.73.034 2.48.558a3.971 3.971 0 011.388 1.712L41.87 1.837A32.171 32.171 0 0032.804.539a32.25 32.25 0 00-6.903.747L5.772 30.538s.537.27.917 1.16L22.66 18.14c-.055-.052-.11-.1-.161-.155h.003zm7.646-14.576c.402-.6.987-.914 1.72-.871.613.036 1.094.34 1.472.813.39.484.582 1.05.588 1.666.009.722-.207 1.37-.728 1.895a1.95 1.95 0 01-.801.487l-.092.03c.1.129.201.244.29.37.027.039.055.109.036.145-.021.043-.085.074-.137.086a1.282 1.282 0 01-.265.024c-.079 0-.11.034-.128.107a.353.353 0 00.086.338c.048.055.103.103.155.155.177.168.207.369.113.585-.043.1-.104.195-.162.29-.04.063-.31.502-.38.456-.068-.045-.068-.11-.028-.176a16.5 16.5 0 00.335-.628c.073-.155.055-.256-.067-.378-.113-.11-.24-.213-.277-.377-.021-.107-.021-.217-.034-.335-.06.006-.137.015-.216.018-.137.01-.195-.08-.13-.204.07-.137.145-.271.224-.414-.13-.028-.262-.046-.383-.083-.61-.18-1.054-.575-1.338-1.13-.496-.975-.478-1.95.14-2.866l.007-.003z" fill="#FFEACA"/><path d="M42.134 1.913L27.531 14.15c.046.116.088.232.125.354.32 1.045.277 2.074-.256 3.055a2.923 2.923 0 01-.956 1.048c-.037.024-.07.052-.12.085.202.14.397.268.58.412.057.045.127.136.115.194-.012.07-.094.144-.161.18a1.78 1.78 0 01-.372.146c-.113.034-.143.098-.14.207.01.202.095.35.265.454.095.058.195.107.293.159.325.17.456.444.41.8-.02.165-.066.327-.109.488-.03.11-.24.86-.36.823-.115-.037-.14-.131-.115-.244.03-.125.2-.929.222-1.054.043-.259-.027-.393-.259-.518-.21-.113-.441-.207-.56-.43-.076-.142-.122-.304-.189-.471-.088.033-.195.079-.305.118-.198.07-.32-.033-.277-.24.046-.229.098-.457.15-.698-.205.015-.4.043-.595.043a3.2 3.2 0 01-2.208-.871L6.695 31.607s0 .06.293 1.258l49.168-22.307A32.296 32.296 0 0042.13 1.913h.003zm1.98 11.563c-.493.835-1.19 1.426-2.153 1.666a2.6 2.6 0 01-1.261 0c-.037-.009-.077-.015-.129-.027.028.216.062.42.077.624.006.064-.013.165-.058.192-.052.034-.15.025-.217 0a1.55 1.55 0 01-.32-.155c-.088-.055-.149-.037-.219.034a.462.462 0 00-.137.444c.019.098.046.192.073.287.086.317-.018.566-.277.749-.119.085-.253.152-.384.22-.088.045-.706.359-.752.258-.046-.097 0-.17.088-.22.1-.054.728-.425.823-.486.195-.128.24-.256.183-.482-.052-.207-.131-.411-.055-.624.048-.137.125-.262.195-.405-.077-.037-.168-.08-.26-.128-.164-.089-.17-.229-.008-.326.176-.107.356-.21.545-.32-.131-.125-.268-.235-.384-.363-.576-.63-.81-1.392-.75-2.226.11-1.462.805-2.568 2.154-3.196.88-.408 1.767-.365 2.58.198.677.47 1.018 1.152 1.124 1.959a3.573 3.573 0 01-.48 2.321l.002.006z" fill="#FFEACA"/><path d="M.7 35.177c.445 5.937 2.471 11.493 5.706 16.108l.262.354c.164.222.326.444.484.67 4.764 6.266 11.902 10.887 19.937 12.376.335.043.67.082 1.006.119 1.044.119 2.09.244 3.137.353l.387.037c.454.018.91.03 1.368.03 2.09 0 4.2-.38 6.18-.764.436-.107.88-.113 1.322-.195 13.464-3.187 23.69-14.917 24.741-29.079L.704 35.174l-.003.003z" fill="#E5EBB4"/><path d="M27.086 32.825a9.136 9.136 0 001.511-3.229L7.256 34.278l.137.872 18.81.06c.009-.807.298-1.593.883-2.385zm36.121-10.823l-33.01 7.244c.085.131.164.265.24.402.085.159.168.305.262.442.393.554.98.914 1.453 1.164.618.329 1.255.651 1.944.983a90.681 90.681 0 002.15 1.012c.22.1.344.17.454.387.134.268.314.52.469.773.137.226.277.451.411.68a.474.474 0 01.058.21l27.318.2a32.135 32.135 0 00-1.748-13.494v-.003zM7.034 34.208l56.082-12.462c-1.675-4.581-3.427-7.852-6.854-11.197L6.96 32.658s.165 1.011.074 1.55z" fill="#FFEACA"/><mask id="a" fill="#fff"><path d="M26.203 35.107l-18.716-.028v-.752l21.095-4.658c.04-.158.08-.32.113-.481L7.21 33.928l-.176.04.009 1.562 19.172.03a3.707 3.707 0 01-.009-.45l-.003-.003z"/></mask><path d="M26.203 35.107l-18.716-.028v-.752l21.095-4.658c.04-.158.08-.32.113-.481L7.21 33.928l-.176.04.009 1.562 19.172.03a3.707 3.707 0 01-.009-.45l-.003-.003z" fill="#9C6A19" fill-opacity=".81"/><path d="M26.203 35.107L188.13-126.821l-66.933-66.933-94.659-.139-.335 229zm-18.716-.028h-229v228.665l228.665.335.335-229zm0-.752l-49.372-223.614-179.628 39.66V34.327h229zm21.095-4.658l49.373 223.615 138.411-30.561L250.745 85.21 28.582 29.67zm.113-.481l224.221 46.537 71.888-346.37-345.444 76.21L28.695 29.188zM7.21 33.928l-49.334-223.623-.377.083-.376.084L7.21 33.928zm-.176.04l-50.087-223.456-179.988 40.344 1.078 184.45L7.034 33.968zm.009 1.562l-228.996 1.34 1.329 227.299 227.303.361.364-229zm19.172.03l-.364 229 248.852.396-20.247-248.027L26.216 35.56zm-.009-.45l228.809 9.339 4.094-100.291-70.976-70.976L26.206 35.11zm.332-229.003l-18.715-.028-.671 458 18.715.027.671-457.999zM236.487 35.079v-.752h-458v.752h458zM56.86 257.941l21.095-4.657-98.746-447.229-21.094 4.658L56.86 257.941zM250.745 85.21c.09-.363 1.119-4.417 2.171-9.485L-195.527-17.35a220.317 220.317 0 011.338-6.023c.313-1.32.567-2.332.608-2.5L250.745 85.21zM-20.64-194.435l-21.484 4.74L56.545 257.55l21.484-4.739-98.669-447.246zm-22.236 4.907l-.177.04L57.12 257.423l.177-.04-100.173-446.911zM-221.963 35.307l.01 1.562 457.992-2.678-.009-1.563-457.993 2.679zM6.679 264.53l19.172.03.728-457.999-19.172-.031-.728 458zM254.456 16.929c.75 9.194.932 18.383.559 27.52L-202.604 25.77a232.706 232.706 0 00.578 28.421L254.456 16.93zm-66.323-143.747l-.003-.003-323.855 323.855.004.003 323.854-323.855z" fill="#FFE2B7" mask="url(#a)"/><mask id="b" fill="#fff"><path d="M30.236 29.304l32.98-7.28c-.051-.143-.1-.287-.155-.427l-33.139 7.317c.125.116.223.25.31.393l.004-.003z"/></mask><path d="M30.236 29.304l32.98-7.28c-.051-.143-.1-.287-.155-.427l-33.139 7.317c.125.116.223.25.31.393l.004-.003z" fill="#9C6A19" fill-opacity=".81"/><path d="M30.236 29.304l-49.362-223.617-65.288 14.412-47.277 47.277L30.236 29.304zm32.98-7.28L112.58 245.64l254.703-56.224-88.719-245.284L63.217 22.024zm-.155-.427L276.316-61.85l-71.372-182.395-191.255 42.228L63.06 21.597zm-33.139 7.317L-19.45-194.7l-427.045 94.288 320.751 297.282L29.922 28.914zm.31.393l-194.886 120.25 152.056 246.436L192.16 191.234 30.233 29.307zm49.366 223.614l32.981-7.281-98.725-447.233-32.98 7.28 98.724 447.234zM278.563-55.867c.213.589.376 1.05.385 1.073l-.227-.636a234.23 234.23 0 00-2.405-6.42l-426.509 166.895a221.233 221.233 0 01-1.937-5.13L278.563-55.867zM13.689-202.018l-33.14 7.317 98.745 447.228 33.14-7.316-98.745-447.229zM-125.744 196.87c-20.909-19.379-33.343-38.291-38.91-47.313l389.774-240.5c-5.744-9.309-18.373-28.488-39.532-48.099L-125.744 196.87zm317.904-5.636l.003-.003-323.854-323.855-.004.004L192.16 191.234z" fill="#FFE2B7" mask="url(#b)"/><mask id="c" fill="#fff"><path d="M37.596 35.125c.048.11.054.259.018.45l27.33.043c.012-.149.027-.298.036-.45l-27.388-.043h.004z"/></mask><path d="M37.596 35.125c.048.11.054.259.018.45l27.33.043c.012-.149.027-.298.036-.45l-27.388-.043h.004z" fill="#9C6A19" fill-opacity=".81"/><path d="M37.596 35.125l209.262-93.006-60.442-135.994H37.596v229zm.018.45L-187.342-7.272l-51.698 271.417 276.296.432.358-229zm27.33.043l-.358 229 211.399.33L293.184 54.25 64.944 35.618zm.036-.45l228.59 13.715 14.54-242.337-242.772-.378-.357 229zm-27.388-.043v-229l-.356 458 .356-229zm-209.259 93.006c-27.408-61.668-19.387-115.913-15.675-135.404l449.911 85.697c3.786-19.874 11.795-74.418-15.711-136.305l-418.525 186.012zM37.256 264.576l27.33.042.715-457.999-27.33-.043-.715 458zM293.184 54.25a241.725 241.725 0 01-.069.835c.065-.753.271-3.149.454-6.202l-457.178-27.43c.174-2.902.368-5.147.42-5.75l.031-.346a203.556 203.556 0 00-.139 1.63L293.184 54.25zM65.337-193.832l-27.388-.043-.713 458 27.388.042.713-457.999zM37.592 264.125h.004v-458h-.004v458z" fill="#FFE2B7" mask="url(#c)"/><path d="M26.319 36.261c.012.083.021.165.036.244.168.984.405 1.718.963 2.54.2.3.597.82.871 1.058.28.243.606.42.929.6 1.474.82 3.064.935 4.734.402 1.334-.427 2.562-1.362 3.052-2.732.231-.646.411-1.32.542-1.983.052-.256.104-.512.162-.768.051-.238.042-.417-.028-.54-.134-.228-.274-.453-.411-.679-.155-.255-.335-.508-.47-.773-.109-.217-.234-.287-.453-.387-.232-.107-.463-.21-.695-.32a91.106 91.106 0 01-1.456-.692 54.628 54.628 0 01-1.943-.983c-.47-.253-1.06-.61-1.453-1.164a4.705 4.705 0 01-.262-.442c-.186-.335-.372-.679-.725-.901-.21-.134-.436-.162-.63-.08-.195.086-.339.275-.39.524a9.161 9.161 0 01-1.606 3.637c-.761 1.03-1.026 2.05-.816 3.12.021.103.037.213.049.32zm-5.575 12.064l-2.284 2.122-.88.88-.506.75-.168.822.204.826.77.862 2.904 2.434 2.248 1.65 2.172 1.31.13-1.91-1.629-1.312-.804-.917-1.538-1.273-.692-.844-.262-.357.335-.41S22.416 51.534 22.5 51c.108-.685-.5-1.5-.5-1.5l-.5-.5-.756-.675z" fill="#F4EAE5"/><path d="M25.511 58.504c-.027-.051-.073-.128-.094-.176l-.018-.043.012-.046c.015-.055-.08-.149-.262-.326l-4.6-4.46 2.117-1.955a5.55 5.55 0 01.058-.445l-2.653 2.407.168.091c.048.043 4.215 4.045 4.852 4.664l.012.055.006.04c.016.097.08.21.14.32l.01.014c.036.064.076.131.091.174l.01.024-.05 1.088-.185-.122c-2.986-1.925-8.557-5.882-8.27-7.08.109-.456.508-.898.83-1.251l.016-.018c.494-.549 2.187-2.12 2.693-2.605l.222-.213c-.067-.067-.036-.216-.088-.299-.08.074-.253.223-.335.302-.509.484-2.206 2.065-2.705 2.614l-.021.024c-.348.384-.771.856-.896 1.38-.183.767 1.212 2.248 4.27 4.523a85.47 85.47 0 004.509 3.11l.225.143.07-1.553c.016-.119-.051-.238-.137-.387l.003.006z" fill="#333"/><path d="M57.822 35.585c-.125-.076-.247-.161-.378-.228-1.611-.795-3.68.502-3.939 2.467-.03.232-.051.256-.268.32-1.154.344-2.309.685-3.46 1.03a.103.103 0 01-.131-.077c-.037-.17-.082-.356-.11-.487-.018-.082-.021-.231-.122-.259a.262.262 0 00-.127.006c-.107.022-.21.052-.311.086-.08.027-.204.051-.253.124-.052.08-.012.165.01.247 0 .01.06.186-.031.216a5.159 5.159 0 01-.369.11c-.106.03-.21.061-.317.088-.097.028-.192.067-.292.043-.244-.06-.317-.39-.366-.6-.015-.067-.021-.137-.033-.204-.03-.146-.116-.204-.265-.165-.11.028-.22.064-.33.098-.09.03-.234.082-.267.18-.073.2.29 2.053.426 2.278.037.061.134.061.198.052.058-.01.116-.024.17-.04 2.042-.609 4.08-1.212 6.12-1.824.171-.052.262-.016.33.134.191.42.48.746.88.971 1.2.674 2.872.098 3.646-1.273.716-1.267.442-2.623-.402-3.296l-.01.003zm-.53 3.14c-.637.802-1.679 1.012-2.355.476-.685-.54-.728-1.596-.097-2.391.621-.783 1.663-.987 2.345-.457.664.512.713 1.608.104 2.373h.003z" fill="#F9B333"/><path d="M52.933 38.62c-.064-.211-.4-.668-.899-.141-.015.015-.04.021-.052 0-.073-.125-.225-.369-.545-.204-.14.073-.146.244-.173.317-.01.024-.043.03-.058.009-.092-.119-.488-.4-.771-.104-.104.11-.207.177-.238.396-.021.14-.015.366.168.354.1-.007.183-.061.29-.019.136.055.148.217.124.345-.043.225-.082.523-.122.843l-.11-.04s-.167 1.536-.337 2.343c-.168.804-2.081 3.409-2.081 3.409s-1.218 1.855-1.593 2.23c-.375.374-1.255.225-1.255.225l-1.219-.542-.654-.32-.844 3.034.505.13.637.226 1.237.375 1.462.338.993-.055.75-.356.916-1.273 1.743-3.784 1.779-5.245-.092-.034c.046-.124.092-.246.137-.36.186-.49.256-.855.35-1.461a2.691 2.691 0 00-.048-.643v.006z" fill="#F4EAE5"/><path d="M32.478 41.674s.183 1.395.003 2.023c-.18.627-.475 1.718-.664 1.83-.189.113.66-.136.66-.136l1.162-1.374 1.078-.911-1.212-.518-.546-.588-.481-.326z" fill="#E3DCD4"/><path d="M29.697 42.99l.323-.317s.393-.185.56-.374c.168-.19.299-.506.299-.506l.993-.055.767.076.15.47.076.898.055 1.011-.22.905-.533.463-.923-.13-1.148-1.244-.71-1.017.308-.177.003-.003z" fill="#F4EAE5"/><path d="M20.342 54.05l1.441 1.49 2.099 1.986L25.1 58.66l-.14-.56-1.291-1.286-2.203-2.117-1.112-.85-.012.204z" fill="#E3DCD4"/><path d="M4.079 29.338L10.39 9.617a32.411 32.411 0 00-7.024 9.982l-.67 9.452s.6-.24 1.386.284l-.003.003z" fill="#FFEACA"/><path d="M6.695 35.308h.482s-.003-.558 0-.689a6.94 6.94 0 00-.116-1.401c-.177-.963-.527-1.974-1.176-2.714a5.008 5.008 0 00-2.723-1.6 5.054 5.054 0 00-2.4.082 32.223 32.223 0 00-.134 6.282c1.163.006 3.055.021 3.829.027l2.238.016v-.003z" fill="#fff"/><path d="M4.511 35.293c.448.003.345 0-.051 0a49.25 49.25 0 01.051 0z" fill="#FFF2DE"/><path d="M24.354 36.386c.122 1.56 1.358 1.746 1.882 1.746.524 0 .019-1.015.019-1.746 0-.73-.427-1.325-.95-1.325-.525 0-1.009.597-.951 1.325zm15.124-.076c-.122 1.56-1.359 1.746-1.883 1.746-.523 0-.018-1.015-.018-1.746 0-.73.427-1.325.95-1.325.524 0 1.009.597.951 1.325z" fill="#F4EAE5"/><path d="M38.729 36.237c0 .533-.326.966-.731.966-.406 0-.375-.403-.375-.933s-.028-.996.375-.996c.402 0 .73.433.73.966v-.003zm-12.52.103c.064.53.131.994-.274.994s-.731-.433-.731-.966c0-.533.326-.965.73-.965.406 0 .211.42.275.935v.003z" fill="#E3DCD4"/><path d="M28.509 34.635a.512.512 0 00-.143.31c-.03.26.1.534.326.665a.66.66 0 00.734-.061.624.624 0 00.167-.713c-.183-.414-.798-.494-1.084-.201zm5.788 0a.512.512 0 00-.144.31c-.03.26.1.534.326.665a.66.66 0 00.734-.061.624.624 0 00.168-.713c-.183-.414-.798-.494-1.084-.201zm-5.721-2.002c.073 0 .15 0 .222.01.427.04.85.161 1.264.265.195.048.39.189.26.41-.171.293-.723.031-.96-.008-.481-.083-.969-.055-1.453-.034-.207.01-.442.04-.466-.259-.019-.246.173-.295.374-.316.253-.028.5-.064.753-.068h.006zm3.951 7.015a1.788 1.788 0 01-.222.012c-.429.002-.862-.078-1.284-.141-.199-.03-.794-.234-.685-.468.141-.308 1.103-.017 1.343 0 .487.035.97-.04 1.45-.108.205-.029.818-.187.871.108.042.244-.527.416-.725.457-.249.051-.49.112-.742.14h-.006zm2.537-6.942c-.502.019-.993.156-1.483.278-.198.048-.39.188-.26.41.171.293.625.062.863.007.502-.113 1.038-.073 1.55-.052.207.01.442.04.466-.259.028-.347-.42-.329-.66-.362a3.082 3.082 0 00-.473-.025l-.003.003z" fill="#333"/><path d="M24.988 50.286l.058.059-.058-.06zm0 0l.061.059-.058-.06h-.003z" fill="#fff"/><path d="M43.417 47.124c-.122-.147-.415-.183-.616-.25-.542-.183-1.1-.375-1.575-.707-.654-.457-1.17-1.093-1.86-1.532a9.946 9.946 0 00-3.586-1.404c-.293-.052-.621-.15-.92-.098-.667.116-1.167.762-1.563 1.255-.353.439-.688 1.16-1.334 1.167-1.075.012-1.782-1.496-2.4-2.175-.326-.36-.479-.344-.926-.235-1.225.305-2.437.655-3.552 1.258-1.816.984-3.668 2.346-5.063 3.878.533.63 1.137 1.146 1.597 1.861.423.661.794 1.356 1.236 2.005.037.055.116.049.15-.006.265-.451 1.477-1.667 1.815-2.014.027-.027.07-.009.073.028.064 1.23.131 2.458.198 3.688 0 0 .064 4.07.064 4.161l.015 1.012c.01.518-.466 3.783-.539 5.005a32.203 32.203 0 008.164 1.047c2.333 0 4.609-.25 6.802-.724-.113-2.322-1.051-7.701-1.042-10.957.003-1.146.058-2.306.012-3.449 0-.042.049-.064.08-.033.234.268.874.466 1.084.6.73.463 1.77 1.203 2.635 1.294.149.016.892-3.387.95-3.713.034-.198.207-.719.131-.898a.202.202 0 00-.04-.064h.01z" fill="#3E98A2"/><path d="M37.784 48.775l1.956 1.776-1.145-.567-.055 5.471.368 3.034.287 2.48.356 2.534.043 1.011-1.206.311-.479-4.953a11.44 11.44 0 01-.045-.792l-.074-3.613-.103-3.021-.049-3.607c0-.088.092-.128.143-.064h.003zm-3.877-4.99s2.047.275 3.36.95c1.312.677 1.91 1.049 2.51 1.463.6.414 3.384.975 3.61 1.011.225.037-2.036-.935-2.036-.935l-1.011-.786-.975-.75-1.535-.825-1.724-.6-1.35-.225-.85.7v-.002z" fill="#3C8993"/><path d="M33.34 3.35c-.378-.471-.859-.776-1.471-.812-.734-.046-1.32.27-1.721.87-.616.92-.634 1.892-.14 2.867.283.558.725.95 1.337 1.13.125.037.253.055.384.083-.077.143-.153.277-.226.414-.064.125-.006.213.131.204.076-.003.152-.012.216-.018.01.118.01.228.034.335.034.164.164.265.277.377.125.122.143.223.067.378-.036.076-.295.555-.335.628-.037.067-.04.13.027.176.07.046.342-.393.381-.457a2.69 2.69 0 00.162-.289c.094-.216.064-.417-.113-.585-.052-.052-.107-.1-.155-.155a.351.351 0 01-.086-.338c.019-.07.05-.107.128-.107a1.3 1.3 0 00.265-.024c.052-.012.116-.043.137-.086.019-.033-.009-.106-.036-.146-.089-.125-.189-.24-.29-.368.037-.013.064-.025.092-.03.307-.098.576-.26.801-.488.52-.524.737-1.173.728-1.895a2.666 2.666 0 00-.588-1.666l-.006.003z" fill="#871450"/><path d="M30.099 5.703c-.222-.604-.186-1.207.228-1.8-.097 1.629.372 1.781.847 2.814-.493-.17-.901-.545-1.075-1.011v-.003z" fill="#fff"/><path d="M26.096 12.337c-.746-.524-1.575-.765-2.48-.558-1.084.247-1.796.948-2.125 1.99-.506 1.593-.12 3.012 1.01 4.215.647.689 1.457 1.07 2.416 1.076.195 0 .39-.028.594-.043-.051.24-.103.47-.149.698-.04.207.08.31.277.24.11-.04.217-.085.305-.119.067.168.113.33.189.473.119.222.35.316.56.43.232.124.302.258.26.517-.022.125-.193.929-.223 1.054-.027.113 0 .207.116.244.119.036.329-.713.36-.823.042-.161.087-.323.109-.487.042-.357-.085-.63-.412-.801-.097-.052-.197-.104-.292-.159a.52.52 0 01-.265-.454c-.006-.11.027-.173.14-.207.128-.036.256-.082.372-.146.07-.04.15-.113.161-.18.01-.058-.058-.149-.115-.195-.183-.143-.378-.27-.58-.41.05-.034.083-.062.12-.086.405-.271.725-.619.956-1.048.533-.981.576-2.01.256-3.055a4.016 4.016 0 00-1.557-2.166h-.003z" fill="#D7B0FF"/><path d="M22.383 17.128c-.594-.752-.682-1.76-.387-2.717.18 1.594 1.106 2.69 2.364 3.57-.77-.067-1.514-.268-1.977-.853z" fill="#fff"/><path d="M44.596 11.158c-.107-.804-.448-1.49-1.124-1.959-.814-.56-1.7-.606-2.58-.198-1.347.628-2.045 1.73-2.154 3.196-.064.835.173 1.596.75 2.227.115.128.252.237.383.362-.189.11-.369.213-.545.32-.159.097-.156.238.009.326.091.049.186.091.259.128-.07.143-.147.268-.195.405-.073.213.003.417.055.624.057.226.009.354-.183.482-.095.06-.725.432-.823.487-.088.049-.137.122-.088.22.049.1.664-.214.752-.26.131-.067.265-.134.384-.219.26-.186.363-.435.277-.75-.024-.094-.051-.191-.073-.285a.46.46 0 01.137-.445c.07-.07.131-.089.22-.034.1.061.207.116.32.156.067.02.164.03.216 0 .042-.028.06-.128.058-.192-.016-.204-.049-.409-.076-.625.051.012.088.018.127.028.42.1.841.1 1.262 0 .962-.241 1.66-.832 2.153-1.667.42-.712.591-1.492.482-2.32l-.003-.007z" fill="#B698C7"/><path d="M39.228 11.606c.137-.84.722-1.431 1.526-1.812-.935 1.075-1.096 2.336-.917 3.692-.417-.546-.715-1.228-.609-1.88z" fill="#fff"/><path d="M36.359 33.194c.048.015.34 1.2.362 1.288.07.284.128.57.137.862.022.64-.17 1.265-.262 1.898-.158 1.085-.554 2.105-1.37 3.165-.128.165-.055.159-.055.159l.89-.488 1.376-2.163.262-1.498.262-1.237-.768-1.16c-.207-.123-.609-.753-.834-.826zm16.443 5.069a.282.282 0 00-.18-.034c-.085.012-.14-.027-.146-.018.021.009.286.344.174 1.023-.159.96-.546 1.85-.872 2.76-.344.957-.664 1.922-1.014 2.879-.195.53-.393 1.057-.6 1.58-.146.366-.293.735-.442 1.1-.35.869-.783 1.697-1.218 2.526-.235.444-.466.926-.798 1.31a6.835 6.835 0 01-.284.31c-.009.01-.018.015-.024.025.052-.01.1-.025.15-.04a.936.936 0 00.337-.186c.089-.085.406-.402.494-.484.247-.29.45-.634.649-.969.097-.164.2-.338.307-.5.284-.435.503-.956.716-1.462.067-.161.134-.32.201-.472.582-1.319 1.054-2.668 1.487-4.042.052-.168.082-.341.146-.515.152-.417.231-.658.332-.929.046-.122.091-.243.134-.368.027-.083.06-.165.097-.244.165-.335.442-1.225.549-2.528.018-.232 0-.582-.198-.722h.003z" fill="#E3DCD4"/><path d="M53.115 38.576c-.063-.265-.182-.481-.469-.56-.134-.037-.261 0-.377.106l-.019.016c-.03.027-.067.064-.118.085-.162.07-.284-.064-.345-.131l-.033-.033a.28.28 0 00-.31-.052c-.126.06-.147.186-.309.195a.83.83 0 01-.21-.03l-.06-.016c-.214-.043-.464.055-.64.247a1.348 1.348 0 00-.28.539.957.957 0 00-.028.17c0 .034-.006.067-.009.098-.01.073.01.13.055.17.045.043.11.055.17.034.089-.034.253-.08.335-.006.055.055.08.155.07.292-.027.479-.18 1.49-.338 2.255 0 .012 0 .024-.006.036-.088.411-.161.688-.225.825l-.006.025s0 .006-.003.012l-.006.015c-.22.616-.582 1.16-.932 1.69l-.107.162c-.055.086-.113.171-.168.26-.396.624-.834 1.303-1.34 2.077l-.03.045c-.336.518-.753 1.161-1.365 1.304-.387.092-.832.006-1.392-.268-.293-.14-.597-.274-.868-.387l-.064-.027c-.03-.012-.086-.055-.116-.07-.027.122-.04.173-.073.307.036.016.103.04.14.055l.085.037c.253.11.515.225.768.347.39.192.98.43 1.584.286.728-.167 1.179-.865 1.541-1.425l.03-.046c.534-.822.96-1.483 1.341-2.08.091-.137.18-.278.271-.415.408-.618.765-1.178.984-1.815.222-.646.31-1.325.393-2.084l.012-.106c.012-.131.03-.26.049-.387.018-.128.036-.26.049-.387.012-.128.051-.253.051-.38 0-.086.016-.174-.036-.245-.125-.173-.436-.085-.536-.277-.119-.225.152-.475.207-.524.14-.115.356-.182.524-.067.042.03.079.067.11.095.073.073.097.094.146.085.024-.003.033-.009.07-.097a.516.516 0 01.073-.15.331.331 0 01.256-.146h.015c.207 0 .271.189.31.302.046.134.062.149.098.149.082 0 .125-.061.204-.195l.01-.018c.027-.046.109-.186.264-.207.116-.022.21.058.29.17.18.256.152.597.128.893-.07.868-.402 1.66-.692 2.473l-.14.393c-.167.472-.329.944-.49 1.42-.323.944-.655 1.919-1.036 2.863-.168.417-.341.835-.52 1.237-.199.447-.376.907-.598 1.343a14.42 14.42 0 01-.725 1.24c-.259.402-.484.813-.84 1.109-.101.082-.21.155-.336.2-.441.16-.971.095-1.434.022-.75-.116-1.487-.338-2.044-.518-.381-.125-.799-.28-1.198-.43l-.073.284c.424.158.777.29 1.182.42.564.183 1.307.409 2.087.53.502.077 1.078.144 1.578-.036.283-.1.511-.314.621-.43.317-.338.564-.746.807-1.139a14.865 14.865 0 00.984-1.876c.086-.198.153-.409.25-.603a38.485 38.485 0 001.544-4.1l.028-.095c.158-.484.308-.972.45-1.447l.117-.375c.073-.237.16-.475.246-.703.165-.442.317-.905.405-1.374.058-.308.1-.78.01-1.158l.002-.003z" fill="#333"/><mask id="d" fill="#fff"><path d="M4.274 35.515h.524c.655.003 1.492.01 1.894.012H7.4v-.225s-.003-.554 0-.682c.01-.482-.03-.966-.119-1.444-.213-1.173-.64-2.148-1.227-2.824a5.25 5.25 0 00-2.845-1.672 5.168 5.168 0 00-2.419.067c-.021.158-.037.32-.055.48a4.742 4.742 0 012.38-.106c.998.21 1.921.753 2.6 1.53.537.612.924 1.513 1.125 2.607.082.448.118.905.112 1.355v.47h-.253c-.517 0-1.772-.013-2.41-.016h-.38a821.263 821.263 0 00-3.29-.024c.01.15.022.302.034.45l3.253.022h.372-.003z"/></mask><path d="M4.274 35.515h.524c.655.003 1.492.01 1.894.012H7.4v-.225s-.003-.554 0-.682c.01-.482-.03-.966-.119-1.444-.213-1.173-.64-2.148-1.227-2.824a5.25 5.25 0 00-2.845-1.672 5.168 5.168 0 00-2.419.067c-.021.158-.037.32-.055.48a4.742 4.742 0 012.38-.106c.998.21 1.921.753 2.6 1.53.537.612.924 1.513 1.125 2.607.082.448.118.905.112 1.355v.47h-.253c-.517 0-1.772-.013-2.41-.016h-.38a821.263 821.263 0 00-3.29-.024c.01.15.022.302.034.45l3.253.022h.372-.003z" fill="#9C6A19" fill-opacity=".81"/><path d="M4.798 35.515l1.065-228.997-.533-.003h-.532v229zm1.894.012L4.958 264.521l.867.006h.867v-229zm.707 0v229h229v-229h-229zm0-.225h229v-.63l-.003-.628L7.399 35.302zm0-.682l228.935 5.45.013-.551.011-.552L7.399 34.62zm-.119-1.444L-218.026 74.14l.057.315.059.315L7.28 33.176zm-1.227-2.824l172.821-150.246-.202-.232-.202-.232L6.053 30.352zM3.208 28.68l47.428-224.035-.516-.109-.516-.107L3.208 28.679zm-2.42.067L-58.41-192.47l-147.397 39.444-20.357 151.22L.789 28.747zm-.054.48l-227.546-25.76-39.275 346.931 333.853-102.2L.734 29.228zm2.38-.106l-48.56 223.793.708.153.71.149L3.112 29.121zm2.6 1.53L-166.666 181.4l.047.054.048.055L5.715 30.651zm1.125 2.607L232.07-8.112l-.004-.018-.003-.018L6.839 33.258zm.112 1.355l-228.979-3.094-.021 1.547v1.547h229zm0 .47v229h229v-229h-229zm-2.662-.016L5.385-193.93l-.548-.003h-.548v229zm-.38 0L1.181 264.051l1.363.016h1.363v-229zm-.97-.009L1.172 264.051h.007L2.94 35.058zm-2.32-.015l1.074-228.997-244.594-1.149 14.947 244.14L.618 35.043zm.033.45L-227.59 54.127l17.06 208.988L-.85 264.49.65 35.494zm3.253.022L2.38 264.51l.763.005h.763v-229zm.369 229h.235v-458h-.235v458zm.234 0h.144v-458h-.144v458zm.143 0h.146v-458h-.145v458zm-.918-.002l.575.003.65.005 3.47-457.987c-.416-.003-1.546-.012-2.565-.016l-2.13 457.995zm2.96.014h.189v-458h-.189v458zm.188 0h.292v-458h-.291v458zm.293 0h.225v-458h-.225v458zm229.225-229v-.225h-458v.225h458zm-229-.225l228.997-1.257v.159l.001.24v.803c0 .207-.001.632-.005 1.179-.003.278-.013 1.752-.058 3.644l-457.87-10.901a223.575 223.575 0 00-.059 3.777c-.005.602-.006 1.09-.007 1.367a224.575 224.575 0 00.003 1.91l.001.204v.13l.001.002L7.399 35.302zm228.959 3.665a236.243 236.243 0 00-3.887-47.387L-217.91 74.771a221.77 221.77 0 01-3.65-44.499l457.918 8.695zM232.586-7.79c-5.333-29.332-18.952-72.122-53.712-112.105l-345.643 300.492A223.196 223.196 0 01-218.026 74.14L232.586-7.79zM178.47-120.358a234.25 234.25 0 00-127.834-74.997L-44.22 252.714a223.748 223.748 0 01-122.144-71.652l344.834-301.42zM49.604-195.571a234.35 234.35 0 00-47.478-4.862v458a223.654 223.654 0 01-45.315-4.637l92.793-448.501zm-47.478-4.862a234.165 234.165 0 00-60.536 7.964L59.988 249.963a223.859 223.859 0 01-57.862 7.604v-458zM-226.164-1.805a237.693 237.693 0 00-.727 5.976l-.051.473c.008-.074.059-.553.13-1.176l455.093 51.52c.079-.703.139-1.264.156-1.419l-.025.232a219.534 219.534 0 01-.67 5.497L-226.164-1.805zm293.93 250.003a224.257 224.257 0 01-65.64 9.82v-458c-24.04 0-47.075 3.705-68.424 10.24l134.064 437.94zm-65.64 9.82a224.36 224.36 0 01-47.572-5.104l97.118-447.585a233.678 233.678 0 00-49.546-5.311v458zm-46.155-4.802A224.206 224.206 0 01-166.667 181.4l344.763-301.499a233.786 233.786 0 00-127.84-74.875l-94.285 448.19zm-122.543-71.707a223.658 223.658 0 01-51.815-106.845L232.064-8.148c-4.947-26.911-17.909-70.771-54.063-112.06l-344.573 301.717zm-51.822-106.882a222.065 222.065 0 01-3.634-43.108l457.958 6.189c.2-14.77-.979-30.14-3.859-45.82l-450.465 82.74zm-3.655-40.013v.47h458v-.47h-458zm229-228.531h-.253v458h.254v-458zm-.253 0l.687.001h.125l.042.001-.078-.001-.223-.001-.32-.003a267.833 267.833 0 00-.89-.006l-.656-.004-2.192 457.995a10.244 10.244 0 00-.002 0l.634.005 1.009.007.726.003c.259.001.662.003 1.138.003v-458zm-2.41-.016h-.13v458h.131v-458zm-.13 0h-.25v458h.25v-458zm2.476.017c-.667-.008-1.32-.014-1.933-.019L1.178 264.051l.093.001h.007l-.096-.001 5.452-457.967zm-1.926-.019c-.864-.007-2.019-.015-3.015-.019L-.457 264.04l1.628.011 3.537-457.986zM-227.954 49.037c.168 2.732.357 4.986.365 5.089l456.482-37.264.025.315.062.792c.049.656.128 1.735.21 3.08l-457.144 27.988zM-.85 264.49l3.228.021 3.054-457.99-3.279-.021L-.85 264.49zm4.755.026h.372v-458h-.372v458zm.372-458h-.003v458h.003v-458z" fill="#FFE2B7" mask="url(#d)"/><path d="M5.751 30.23L26.032 1.255a32.212 32.212 0 00-15.575 8.298l-6.36 19.553s.768.362 1.651 1.124h.003z" fill="#FFEACA"/><mask id="e" fill="#fff"><path d="M4.003 29.31s.755.36 1.602 1.09l.189.162L26.355 1.185c-.216.043-.432.091-.646.14L5.705 29.901a8.633 8.633 0 00-1.334-.905L10.8 9.23c-.232.216-.463.436-.689.66L3.823 29.226l.18.085z"/></mask><path d="M4.003 29.31s.755.36 1.602 1.09l.189.162L26.355 1.185c-.216.043-.432.091-.646.14L5.705 29.901a8.633 8.633 0 00-1.334-.905L10.8 9.23c-.232.216-.463.436-.689.66L3.823 29.226l.18.085z" fill="#9C6A19" fill-opacity=".81"/><path d="M4.003 29.31l98.39-206.786-.104-.049-.104-.05L4.003 29.31zm1.602 1.09l-149.647 173.341.423.365.424.363L5.605 30.401zm.189.162l-148.8 174.068L48.75 368.55l144.655-206.676L5.794 30.562zM26.355 1.185l187.612 131.312 326.185-466.033-558.099 110.047L26.355 1.185zm-.646.14l-51.026-223.242-85.99 19.654-50.585 72.261L25.709 1.325zM5.705 29.901L-139.51 206.97 51.58 363.685l141.727-202.457L5.705 29.901zm-1.334-.905l-217.776-70.813-58.945 181.276 167.574 90.853L4.371 28.996zM10.8 9.23l217.776 70.813-374.106-238.152L10.799 9.23zm-.689.66l-161.927-161.927-38.854 38.855-16.993 52.254L10.11 9.891zM3.823 29.226l-217.775-70.819-62.244 191.408 181.837 86.295L3.823 29.225zm.18.085C-94.387 236.096-94.423 236.08-94.46 236.062a3.51 3.51 0 00-.072-.034l-.143-.069-.288-.137-.58-.279a218.044 218.044 0 01-3.574-1.764 221.535 221.535 0 01-16.36-9.134 220.171 220.171 0 01-28.566-20.904L155.251-142.94a237.578 237.578 0 00-42.807-29.449 232.35 232.35 0 00-8.893-4.532l-.583-.28-.288-.138-.144-.069a3.453 3.453 0 01-.072-.034c-.035-.017-.071-.034-98.461 206.752zM-143.195 204.47l.189.161 297.599-348.136-.189-.161-297.599 348.136zm336.6-42.595l20.562-29.377-375.223-262.624-20.562 29.377 375.223 262.624zM-17.947-223.489c-3.899.769-7.056 1.5-7.37 1.572L76.736 224.568c-.053.012-.762.174-1.697.379-.972.213-2.496.54-4.382.912l-88.604-449.348zm-143.945 93.487l-20.004 28.576 375.203 262.654 20.004-28.576-375.203-262.654zm312.813-17.166a237.61 237.61 0 00-37.403-25.151l-218.294 402.631a220.42 220.42 0 01-34.734-23.342l290.431-354.138zM222.147 99.81l6.428-19.767-435.553-141.626-6.427 19.766L222.147 99.81zm-367.678-257.92c-.85.795-3.306 3.092-6.286 6.072l323.855 323.855c-2.53 2.53-4.523 4.388-4.91 4.75L-145.531-158.11zm-62.133 97.181l-6.288 19.334 435.549 141.638 6.288-19.334-435.549-141.638zM-94.359 236.11l.18.086 196.364-413.77-.18-.085L-94.359 236.11z" fill="#FFE2B7" mask="url(#e)"/><path d="M38.153 27.555a3.348 3.348 0 00-.634-.78c.265.327.494.674.695 1.04a.505.505 0 00-.061-.26z" fill="#4B759C"/><path d="M39.353 34.528c-.04-1.447.119-2.543-.164-3.963a10.53 10.53 0 00-.345-1.295c-.11-.325-.27-.633-.368-.965-.073-.25-.07-.512-.174-.759-.752-1.245-2.382-2.077-2.9-2.315-1.535-.895-3.384-1.233-5.123-.807-1.462.36-2.797 1.149-3.875 2.187-.545.524-1.084 1.079-1.435 1.746-.493.938-.548.941-.82 2.09-.112.475.028 1.087.269 1.504.283.494.231 1.95.17 2.483-.097.847-.48.898-.438 1.751.03.61.253 1.112.627 1.596.372.485 1.066.628 1.71.46.712 1.734 2.308 3.077 4.139 3.485-1.173 1.62-1.444.911-1.94 1.395.386.174.959.061 1.3-.13.271-.153.856-1.045 1.185-1.1.314-.055.63-.092.947-.082.293.006.597-.025.795.225.14.174.266.356.42.518.434.45.848.73 1.463.548.03-.01.213-.094.244-.107-.874-.164-1.55-.508-1.724-1.279a5.83 5.83 0 004.039-3.393 2.312 2.312 0 002.135-.963c.664-.96-.107-2.035-.13-2.83h-.007zm-14.822-3.177c-.11-.292-.013-.53.064-.81.085-.31.176-.619.289-.923.21-.564.481-1.109.82-1.609.633-.932 1.544-1.663 2.196-2.11 1.041-.716 2.199-1.13 3.344-1.204a7.636 7.636 0 012.395.216c.798.205 1.468.573 2.168.994.576.344 1.161.712 1.657 1.166.055.049.107.1.159.152.164.171.496.71.393.975a.222.222 0 00-.01.128c.034.31.409.82.409.82.116.268.213.56.292.87.128.5.213 1.064.265 1.77.052.69.04 1.368.028 2.087-.003.314-.01.628-.01.948v.134c-.127.018-.292-.034-.426-.04-.259-.015-.524.04-.75-.122-.2-.14-.328-.36-.447-.566-.119-.21-.235-.427-.341-.65-.43-.517-.655-.614-.652-.605-.046-.034-.095-.055-.143-.083-.046-.024-.089-.051-.134-.076a18.688 18.688 0 00-1.965-.938c-.67-.277-1.282-.673-1.736-.984a9.141 9.141 0 00-.28-.189c-.415-.277-.844-.56-1.198-.932-.18-.186-.304-.405-.426-.612-.232-.4-.436-.743-.932-.823-.634-.103-1.051.177-1.18.79a9.353 9.353 0 01-1.489 3.432c-.472.68-.901 1.362-.984 2.203l-.009.103-1.05.095.106-.89c0-.362.01-.725.006-1.087 0-.372.052-.801-.14-1.13-.098-.165-.22-.317-.286-.497l-.003-.003zm1.7 6.613a2.031 2.031 0 01-.14.006c-.51 0-.93-.243-1.274-.743-.338-.484-.405-1.005-.192-1.499.113-.268.408-.563 1.157-.466.125.019.138.107.183.576 0 .024.003.043.003.049.131.761.247 1.355.378 1.922l.034.143-.147.012h-.003zm10.67.412c-.49 1.373-1.721 2.308-3.052 2.732-1.67.533-3.26.414-4.734-.402-.323-.18-.649-.357-.93-.6-.273-.238-.67-.759-.87-1.057-.555-.826-.795-1.56-.963-2.54-.015-.083-.024-.162-.036-.245a3.888 3.888 0 00-.05-.32c-.21-1.069.056-2.086.817-3.119a9.16 9.16 0 001.606-3.637c.051-.25.192-.438.39-.524.194-.082.42-.055.63.08.35.222.54.566.725.901.085.159.168.305.262.442.393.554.98.914 1.453 1.163.618.33 1.255.652 1.943.984a89.847 89.847 0 002.151 1.012c.137.06.262.122.35.243.116.159.22.326.326.494.156.24.302.484.445.734.143.25.207.457.238.731.033.323-.095.63-.156.944a14.838 14.838 0 01-.542 1.983h-.003zm2.455-1.938a1.861 1.861 0 01-.548 1.09c-.28.269-.649.427-1.042.427-.04 0-.08 0-.116-.003l-.149-.01.034-.145c.036-.15.057-.299.079-.46.015-.116.033-.232.055-.348l.222-1.157c.003-.028.01-.064.012-.104.018-.164.04-.347.159-.43.057-.039.17-.084.49-.042a.893.893 0 01.61.344c.167.223.237.527.191.841l.003-.003z" fill="#333"/><path d="M37.97 27.08a1.603 1.603 0 00-.329-.356c.116.113.226.231.33.356zm-.347.14a3.732 3.732 0 00-.158-.152c-.5-.454-1.082-.82-1.658-1.166-.7-.42-1.37-.79-2.169-.993a7.638 7.638 0 00-2.394-.217c-1.145.073-2.303.488-3.344 1.203-.652.448-1.563 1.176-2.197 2.111a7.67 7.67 0 00-.82 1.609c-.112.301-.203.61-.288.923-.077.28-.174.518-.064.81.067.18.192.33.286.497.192.329.137.761.14 1.13 0 .362-.006.725-.006 1.087l-.119.896 1.06-.082.012-.125c.083-.841.512-1.523.984-2.203.734-1.057 1.252-2.205 1.508-3.427.128-.612.518-.892 1.148-.788.497.079.71.414.945.813.122.207.25.426.426.612.354.369.771.664 1.188.938.092.064.186.125.28.19.457.31 1.06.7 1.73.977a17.4 17.4 0 012.252 1.118l-.104-.405c-.055-.174-.11-.35-.176-.518a9.1 9.1 0 01-.39-1.255 6.5 6.5 0 00-.555-1.544 4.431 4.431 0 00-.956-1.243 3.787 3.787 0 00-.628-.47c-.11-.063-.231-.112-.326-.2-.06-.058-.176-.299-.006-.314a.23.23 0 01.107.033c.265.137.518.29.758.466.917.677 1.526 1.648 1.794 2.751.384 1.59.853 2.854 1.478 3.942.119.207.247.426.448.566.225.162.49.107.75.122.133.01.298.058.425.04.007-.043.007-.104.007-.15 0-.32.006-.633.009-.947.012-.719.024-1.398-.028-2.086a10.066 10.066 0 00-.265-1.77 5.97 5.97 0 00-.292-.871s-.375-.51-.408-.82a.251.251 0 01.009-.128c.103-.265-.229-.807-.393-.975v.016z" fill="#7C421C"/><path d="M43.526 47.03c-.119-.14-.329-.199-.518-.247a2.801 2.801 0 01-.161-.046c-.503-.17-1.072-.363-1.538-.685a8.43 8.43 0 01-.832-.698c-.32-.292-.652-.594-1.032-.838a10.154 10.154 0 00-3.635-1.422c-.058-.01-.115-.022-.173-.034-.253-.052-.53-.11-.795-.064-.704.125-1.213.762-1.624 1.274l-.027.036c-.076.092-.147.195-.223.302-.28.396-.563.804-1.005.81-.73 0-1.288-.78-1.782-1.468-.18-.247-.344-.479-.509-.661-.368-.405-.572-.4-1.066-.278-1.188.296-2.443.655-3.585 1.274-1.962 1.06-3.771 2.449-5.1 3.905l-.084.091.082.095c.186.222.387.432.578.636.37.39.713.756 1.006 1.21.183.283.356.575.524.856.228.383.463.776.715 1.151a.225.225 0 00.195.098.228.228 0 00.195-.113c.195-.332.95-1.121 1.502-1.688.018-.018.104-.14.137-.1.006.009.01.021.006.033 0 .387.034.774.052 1.158l.064 1.166.006.095.055.963.082 5.175c0 .244-.11 1.176-.231 2.16-.131 1.075-.268 2.175-.308 2.802.095.024.189.052.28.076.034-.603.177-1.785.305-2.836V61.2c.128-1.036.238-1.928.235-2.19l-.083-5.182-.055-.971-.146-2.715a.187.187 0 00-.122-.164.185.185 0 00-.195.046l-.173.18c-.454.462-1.206 1.233-1.548 1.693l-.07.095-.064-.098c-.21-.32-.414-.664-.594-.966-.17-.283-.344-.578-.527-.865-.307-.478-.676-.868-1.035-1.249-.144-.152-.293-.31-.442-.475l-.049-.055.052-.054c1.292-1.38 3.028-2.693 4.889-3.701 1.112-.6 2.345-.954 3.518-1.246.412-.1.509-.113.786.191.156.171.317.397.488.637.508.707 1.139 1.584 2.004 1.584h.015c.585-.006.941-.518 1.23-.929.07-.1.144-.204.214-.292l.028-.034c.377-.475.85-1.066 1.45-1.17.21-.036.45.013.682.061.067.013.128.028.186.037 1.236.222 2.458.7 3.533 1.386.363.228.682.524.993.807.274.25.555.506.862.722.5.35 1.09.548 1.609.725.054.018.115.034.18.052.176.049.316.091.374.158l.015.03c.025.08 0 .25-.091.604-.022.085-.04.161-.049.213-.07.387-.637 2.924-.853 3.521l-.024.067-.07-.012c-.54-.1-1.033-.38-1.496-.66l-.22-.132a45.37 45.37 0 00-1.206-.713 2.898 2.898 0 01-.161-.103c-.177-.119-.472-.32-.603-.265a.187.187 0 00-.116.183c.03.749.015 1.523 0 2.269-.006.396-.015.786-.015 1.173-.006 1.98.332 4.71.633 7.116.198 1.59.37 2.966.412 3.874.094-.021.189-.04.283-.06-.046-.92-.216-2.291-.408-3.842-.299-2.403-.637-5.123-.63-7.085 0-.384.008-.77.014-1.16.007-.348.013-.692.013-1.036 0-.08-.006-.168-.013-.262a2.324 2.324 0 010-.412 1.392 1.392 0 01.043-.283c0-.006.006-.018.015-.021.01-.006.028 0 .04.003.037.018.073.04.11.058.048.024.097.051.143.079.064.036.13.07.195.106l.216.12c.073.039.146.081.22.121l.203.113c.058.03.113.064.171.094l.119.067.042.025c.132.082.26.161.39.237.51.305 1.11.637 1.734.704.158.015.216-.14.356-.63.082-.29.186-.698.308-1.21.207-.865.411-1.81.444-1.992a1.64 1.64 0 01.04-.177v-.018c.091-.344.152-.621.082-.786a.417.417 0 00-.06-.1l-.007-.007z" fill="#327177"/><path d="M37.626 27.22c-.768-.788-2.522-1.733-3.055-2.01l.487.411s2.212 2.023 2.135 2.248c-.076.226.077.75.262 1.2.186.451.75 1.986.826 2.51.07.488.332 2.903.368 3.357.113.016.238.046.339.03.006-.042.003-.106.003-.152 0-.32.006-.633.009-.947.012-.719.024-1.398-.028-2.086a10.075 10.075 0 00-.265-1.77 5.966 5.966 0 00-.292-.871s-.375-.51-.408-.82a.251.251 0 01.009-.128c.103-.265-.229-.807-.393-.975l.003.003zm.689.36v-.009l-.007-.01.007.02z" fill="#693816"/><path d="M35.896 30.361c-.268-1.103-.832-2.108-1.752-2.784a5.77 5.77 0 00-.755-.485.606.606 0 00-.192-.057c-.17.015-.022.329.04.39.094.088.216.137.325.2.226.128.436.296.628.47.393.353.713.776.956 1.242a6.32 6.32 0 01.555 1.545 9.1 9.1 0 00.39 1.255c.064.167.121.344.176.518l.089.335c.228.173.475.387.658.59a16.26 16.26 0 01-1.124-3.216l.006-.003z" fill="#693815"/><path d="M30.099 5.702c-.222-.603-.186-1.206.228-1.8-.097 1.63.372 1.782.847 2.815-.493-.17-.901-.546-1.075-1.012v-.003z" fill="#fff"/><mask id="f" fill="#fff"><path d="M55.988 10.387L7.143 32.552c-.119-.496-.176-.74-.2-.853l15.943-13.36a3.94 3.94 0 01-.335-.305L6.47 31.503v.104c0 .03 0 .088.299 1.313l.063.265 49.485-22.453-.329-.345z"/></mask><path d="M55.988 10.387L7.143 32.552c-.119-.496-.176-.74-.2-.853l15.943-13.36a3.94 3.94 0 01-.335-.305L6.47 31.503v.104c0 .03 0 .088.299 1.313l.063.265 49.485-22.453-.329-.345z" fill="#9C6A19" fill-opacity=".81"/><path d="M7.143 32.551L-215.57 85.838l64.586 269.937 252.753-114.688L7.143 32.551zm-.2-.853l-147.084-175.52-105.96 88.793 29.215 135.123L6.942 31.697zm15.943-13.36l147.083 175.521 212.283-177.89-214.609-175.075L22.886 18.338zm-.335-.305l164.191-159.631-148.23-152.465-163.011 136.548L22.551 18.033zM6.47 31.503l-147.05-175.548-81.95 68.646V31.503h229zm.299 1.417l222.606-53.733-.061-.252-.061-.253L6.769 32.92zm.063.265l-222.606 53.733 64.992 269.253 252.236-114.449L6.832 33.185zm49.485-22.453l94.622 208.537L443.546 86.501 222.56-146.762 56.317 10.732zm-94.954-208.88l-48.844 22.163 189.249 417.072 48.845-22.164-189.25-417.071zM229.857-20.736c-.066-.276-.035-.147.022.094a151.49 151.49 0 01.482 2.093c.099.438.241 1.077.409 1.852l-447.656 96.79c.528 2.44 1.014 4.48 1.021 4.51l.294 1.236L229.857-20.737zm-75.832 227.955l15.944-13.36-294.167-351.042-15.943 13.361 294.166 351.041zm13.618-366.325a224.934 224.934 0 0119.099 17.508l-328.383 319.262a232.73 232.73 0 0019.77 18.118l289.514-354.888zm-292.142 1.591l-16.081 13.47 294.1 351.097 16.08-13.47-294.099-351.097zM-222.53 31.503v.104h458v-.104h-458zm0 .104a229.17 229.17 0 002.942 36.604c1.023 6.328 2.108 11.267 2.34 12.334.686 3.148 1.342 5.83 1.532 6.612L229.253-21.318c.013.056.102.42.235.984.106.448.405 1.723.775 3.42.195.896 1.261 5.738 2.275 12.009a229.199 229.199 0 012.826 29.556c.118 3.868.106 7.022.106 6.956h-458zm6.692 55.046l.064.264L229.439-20.547l-.064-.265-445.213 107.466zm317.292 155.069l49.485-22.453-189.243-417.075-49.485 22.454 189.243 417.074zM222.56-146.762c-.011-.011-.325-.344-.684-.72a248.804 248.804 0 00-1.758-1.825l-328.26 319.389a218.501 218.501 0 01-1.784-1.857L222.56-146.762z" fill="#FFE2B7" mask="url(#f)"/><mask id="g" fill="#fff"><path d="M27.61 14.378L42.39 1.992c-.17-.055-.344-.103-.515-.155l-14.438 12.1c.067.142.124.289.173.44z"/></mask><path d="M27.61 14.378L42.39 1.992c-.17-.055-.344-.103-.515-.155l-14.438 12.1c.067.142.124.289.173.44z" fill="#9C6A19" fill-opacity=".81"/><path d="M42.39 1.992l147.086 175.519L507.545-89.033 112.466-216.022 42.39 1.992zm-.515-.155l66.521-219.126-118.602-36.004-95.001 79.609L41.875 1.836zm-14.438 12.1l-147.083-175.522-134.978 113.108 74.658 159.495L27.437 13.936zm147.259 175.96l14.78-12.386-294.171-351.037-14.78 12.385 294.171 351.038zm-62.23-405.919c-1.39-.447-2.566-.811-3.422-1.072-.842-.257-1.513-.456-1.822-.548l-.311-.091c-.058-.018.015.004.091.026.157.047.695.206 1.394.418L-24.645 220.963c.784.238 1.407.422 1.65.494l.16.048.043.012.012.004.005.001-.181-.054c-.223-.066-.808-.239-1.564-.47-.771-.235-1.86-.572-3.166-.991l140.152-436.029zm-217.673 42.338l-14.439 12.099 294.165 351.043 14.439-12.1-294.165-351.042zm-74.759 284.702a225.158 225.158 0 01-10.529-26.847l436.21-139.587a232.681 232.681 0 00-10.875-27.73l-414.806 194.164z" fill="#FFE2B7" mask="url(#g)"/><mask id="h" fill="#fff"><path d="M2.626 29.048l.192.018.712-9.824c-.155.332-.304.668-.447 1.003L2.47 28.66a6.237 6.237 0 00-1.687.165l-.046.396c.527-.128 1.219-.238 1.889-.174z"/></mask><path d="M2.626 29.048l.192.018.712-9.824c-.155.332-.304.668-.447 1.003L2.47 28.66a6.237 6.237 0 00-1.687.165l-.046.396c.527-.128 1.219-.238 1.889-.174z" fill="#9C6A19" fill-opacity=".81"/><path d="M2.818 29.066l-21.71 227.969 233.16 22.205 16.949-233.602-228.4-16.572zm.712-9.824l228.4 16.573-435.818-113.622L3.53 19.243zm-.447 1.003L-207.5-69.732l-15.037 35.192-2.777 38.17L3.083 20.244zM2.47 28.66l-12.639 228.651 224.707 12.421 16.329-224.457L2.47 28.661zm-1.687.165L-49.485-194.59l-158.442 35.649-18.758 161.316L.783 28.826zm-.046.396L-226.73 2.772l-37.97 326.543 319.463-77.558L.737 29.222zm-19.822 227.795l.192.018 43.421-455.937-.192-.019-43.42 455.938zM231.217 45.638l.713-9.823L-224.869 2.67l-.713 9.824 456.799 33.145zM-203.888-77.806a261.42 261.42 0 00-3.612 8.075l421.166 179.953a197.4 197.4 0 01-2.717 6.07L-203.888-77.807zM-225.314 3.63l-.612 8.417 456.793 33.23.612-8.416-456.793-33.23zM15.109-199.99a235.207 235.207 0 00-64.594 5.401L51.05 252.24c-11.118 2.502-33.133 6.625-61.22 5.072L15.11-199.99zM-226.685 2.376l-.037.324-.02.174-.003.025.015-.127 454.935 52.9.037-.325.02-.174.003-.025-.015.127-454.935-52.9zM54.763 251.757a221.842 221.842 0 01-28.141 4.938 224.141 224.141 0 01-45.756.317l43.52-455.928c-36.412-3.476-65.035 2.533-77.675 5.602L54.763 251.757z" fill="#FFE2B7" mask="url(#h)"/></svg>