<svg width="28" height="17" fill="none" xmlns="http://www.w3.org/2000/svg"><path d="M15.326 16.585c.37-.074 1.037-.222 1.037-1.112 0 0-.074-2.223.963-2.519 1.036-.296 2.369 2.149 3.776 3.112 1.036.667 1.85.593 1.85.593l3.777-.074s1.925-.148 1.037-1.704c-.074-.149-.667-1.112-2.888-3.113-2.295-2.223-1.925-1.852.814-5.631 1.703-2.297 2.444-3.705 2.222-4.224-.296-.519-1.481-.445-1.481-.445h-4.22c-.445 0-.667.074-.89.445 0 0-.666 1.852-1.554 3.334-1.851 3.187-2.591 3.335-2.962 3.113-.666-.37-.518-1.779-.518-2.742 0-3.335.518-4.52-.963-4.817-.962-.148-4.368-.296-5.405.223-.518.296-.814.815-.592.889.222 0 .888.074 1.259.519.592.963.666 5.557-.148 6.002-1.111.815-3.925-4.594-4.591-6.373-.148-.445-.37-.519-.889-.667H.888c-.444 0-1.11.074-.815.963 2 4.15 6.146 14.302 13.624 14.228h1.63z" fill="#fff"/></svg>