<?xml version="1.0" encoding="UTF-8"?> <svg xmlns="http://www.w3.org/2000/svg" width="94" height="94" viewBox="0 0 94 94" fill="none"> <path opacity="0.5" fill-rule="evenodd" clip-rule="evenodd" d="M13.0308 0.127417C9.48213 0.870897 6.61146 3.4226 5.42198 6.89157L5 8.12181V47.0153V85.9087L5.41687 87.124C6.46216 90.1702 8.79658 92.5259 11.8098 93.5748L13.0308 94H40.5H67.9692L69.1902 93.5748C72.2034 92.5259 74.5378 90.1702 75.5831 87.124L76 85.9087V55.3824V24.8561L75.5258 23.5501C75.265 22.8318 74.7465 21.781 74.3738 21.2154C73.5431 19.9544 55.6162 2.78872 53.9473 1.65612C53.3273 1.23537 52.2862 0.697486 51.6337 0.460815L50.4473 0.0305049L32.1041 0.0025531C22.0154 -0.0128939 13.4324 0.0433774 13.0308 0.127417ZM47.6571 14.0566L47.7095 22.6578L48.3045 23.8752C48.9968 25.2917 49.9866 26.2645 51.4293 26.9461L52.455 27.4306L61.5353 27.483L70.6157 27.5356V56.0917C70.6157 88.1645 70.723 85.7184 69.2515 87.2007C67.7846 88.6789 69.9528 88.5751 40.5 88.5751C11.0472 88.5751 13.2154 88.6789 11.7485 87.2007C10.2637 85.7049 10.3843 89.2581 10.3843 47.0153C10.3843 4.76429 10.2631 8.32612 11.7518 6.82647C13.1553 5.41214 12.1139 5.48607 30.8654 5.46989L47.6046 5.45536L47.6571 14.0566ZM61.5353 16.1861C64.8229 19.3193 67.5129 21.9103 67.5129 21.9442C67.5129 21.978 64.3976 22.0058 60.5901 22.0058C54.5401 22.0058 53.6314 21.9693 53.3806 21.7169C53.1305 21.4647 53.0938 20.58 53.0938 14.7997V8.17165L54.3258 9.33073C55.0033 9.9681 58.2478 13.0531 61.5353 16.1861ZM18.5541 37.0964C17.7835 37.5063 17.1375 38.5913 17.1375 39.4756C17.1375 40.3881 17.7831 41.4475 18.5929 41.8638C19.3022 42.2283 19.6275 42.234 39.9524 42.234C60.2774 42.234 60.6027 42.2283 61.3119 41.8638C62.1218 41.4475 62.7674 40.3881 62.7674 39.4756C62.7674 38.5631 62.1218 37.5037 61.3119 37.0874C60.6023 36.7227 60.2856 36.7174 39.9141 36.7253C19.6875 36.7332 19.2215 36.7413 18.5541 37.0964ZM18.5541 51.8079C17.7835 52.2178 17.1375 53.3028 17.1375 54.1871C17.1375 55.0996 17.7831 56.159 18.5929 56.5753C19.3022 56.9398 19.6275 56.9455 39.9524 56.9455C60.2774 56.9455 60.6027 56.9398 61.3119 56.5753C62.1218 56.159 62.7674 55.0996 62.7674 54.1871C62.7674 53.2746 62.1218 52.2152 61.3119 51.7989C60.6023 51.4342 60.2856 51.4289 39.9141 51.4368C19.6875 51.4447 19.2215 51.4528 18.5541 51.8079ZM18.5541 66.5162C17.7837 66.9296 17.1375 68.0164 17.1375 68.8986C17.1375 69.8171 17.7829 70.8705 18.6044 71.2927C19.3115 71.656 19.5875 71.6671 26.711 71.6169C33.8326 71.5669 34.1029 71.552 34.5893 71.1858C35.494 70.5051 35.8248 69.8929 35.8248 68.8986C35.8248 67.9043 35.494 67.2921 34.5893 66.6113C34.102 66.2446 33.8419 66.2308 26.661 66.1911C19.5545 66.1517 19.2073 66.1655 18.5541 66.5162Z" fill="#000354" fill-opacity="0.6"></path> </svg> 