<svg width="28" height="17" viewBox="0 0 28 17" fill="none" xmlns="http://www.w3.org/2000/svg">
<path d="M15.3264 16.5851C15.6966 16.511 16.363 16.3628 16.363 15.4735C16.363 15.4735 16.289 13.2505 17.3256 12.9541C18.3622 12.6577 19.695 15.103 21.1018 16.0664C22.1384 16.7333 22.9529 16.6592 22.9529 16.6592L26.7291 16.5851C26.7291 16.5851 28.6542 16.4369 27.7657 14.8807C27.6917 14.7325 27.0993 13.7692 24.878 11.7684C22.5827 9.54538 22.9529 9.91589 25.6925 6.13669C27.3955 3.83953 28.1359 2.43159 27.9138 1.91288C27.6176 1.39416 26.4329 1.46827 26.4329 1.46827H22.2125C21.7682 1.46827 21.5461 1.54237 21.3239 1.91288C21.3239 1.91288 20.6575 3.76543 19.769 5.24747C17.9179 8.43385 17.1775 8.58206 16.8073 8.35975C16.1409 7.98924 16.289 6.5813 16.289 5.61798C16.289 2.28339 16.8073 1.09776 15.3264 0.801349C14.3638 0.653145 10.9578 0.504941 9.92122 1.02366C9.40291 1.32006 9.10674 1.83878 9.32887 1.91288C9.551 1.91288 10.2174 1.98698 10.5876 2.43159C11.18 3.39492 11.254 7.98924 10.4395 8.43385C9.32887 9.24897 6.51522 3.83953 5.84882 2.06108C5.70074 1.61647 5.47861 1.54237 4.9603 1.39416H0.887904C0.443642 1.39416 -0.22275 1.46827 0.0734245 2.35749C2.0726 6.5072 6.21904 16.6592 13.6974 16.5851H15.3264Z" fill="white"/>
</svg>
