<svg width="23" height="24" viewBox="0 0 23 24" fill="none" xmlns="http://www.w3.org/2000/svg">
<path d="M17.4005 15.1375L15.4768 16.2186C15.246 16.3483 14.9789 16.399 14.7165 16.3631C14.454 16.3271 14.2106 16.2064 14.0233 16.0195L7.60289 9.61429C7.41563 9.42738 7.29478 9.18452 7.25874 8.92272C7.2227 8.66092 7.27345 8.39455 7.40325 8.1642L8.48697 6.24511C8.68204 5.89972 8.75842 5.50011 8.70443 5.10734C8.65044 4.71457 8.46905 4.35023 8.18798 4.06997L5.30482 1.19365C5.13584 1.02498 4.9352 0.89118 4.71436 0.799893C4.49353 0.708606 4.25683 0.661621 4.01779 0.661621C3.77875 0.661621 3.54206 0.708606 3.32122 0.799893C3.10039 0.89118 2.89975 1.02498 2.73077 1.19365L1.42166 2.49873C0.656137 3.26243 0.168512 4.25953 0.0363246 5.33149C-0.0958632 6.40344 0.134974 7.48872 0.692132 8.41475L1.34898 9.50691C4.70338 15.0842 9.43802 19.7081 15.0987 22.935L15.2285 23.0093C17.1622 24.1116 19.5514 23.7903 21.0996 22.2466L22.4667 20.8828C22.6358 20.7142 22.7699 20.5141 22.8614 20.2938C22.9529 20.0734 23 19.8373 23 19.5988C23 19.3604 22.9529 19.1242 22.8614 18.9039C22.7699 18.6836 22.6358 18.4834 22.4667 18.3149L19.5817 15.4367C19.3008 15.1559 18.9355 14.9747 18.5416 14.9206C18.1477 14.8666 17.7469 14.9428 17.4005 15.1375Z" fill="white"/>
</svg>
